<svg width="50" height="30" viewBox="0 0 50 30" fill="none" xmlns="http://www.w3.org/2000/svg">
<path d="M35.9071 17.3196H35.9103L44.1127 17.2578C44.4315 17.2546 44.6891 16.9946 44.6891 16.6728C44.6891 14.5734 43.8808 12.6006 42.4091 11.1154C40.9374 9.63019 38.9826 8.81445 36.9022 8.81445H35.9039C35.5851 8.81445 35.3242 9.0777 35.3242 9.39944V16.7346C35.3242 16.8906 35.3854 17.0401 35.4949 17.1506C35.6076 17.2578 35.7525 17.3196 35.9071 17.3196ZM36.4868 9.98443H36.9054C38.6767 9.98443 40.3384 10.6799 41.5911 11.9441C42.7054 13.0686 43.3752 14.5246 43.5073 16.0911L36.4868 16.1463V9.98443Z" fill="#E44C00"/>
<path d="M47.3174 23.0192H47.3013V16.672C47.3013 13.8673 46.2193 11.2349 44.2548 9.25239C42.2904 7.26993 39.6786 6.17795 36.9027 6.17795H33.8723V0.864287C33.8723 0.542542 33.6114 0.279297 33.2926 0.279297H7.12041C6.80159 0.279297 6.54073 0.542542 6.54073 0.864287V4.39048H0.589437C0.270618 4.39048 0.00976562 4.65372 0.00976562 4.97547C0.00976562 5.29721 0.270618 5.56046 0.589437 5.56046H11.7932C12.112 5.56046 12.3729 5.29721 12.3729 4.97547C12.3729 4.65372 12.112 4.39048 11.7932 4.39048H7.70008V1.44928H32.7161V6.76294V23.0192H20.0117C19.3128 21.3097 17.6447 20.104 15.6996 20.104C13.7544 20.104 12.0863 21.3097 11.3874 23.0192H7.70008V17.8192H11.4068C11.7256 17.8192 11.9864 17.556 11.9864 17.2343C11.9864 16.9125 11.7256 16.6493 11.4068 16.6493H2.61507C2.29625 16.6493 2.0354 16.9125 2.0354 17.2343C2.0354 17.556 2.29625 17.8192 2.61507 17.8192H6.54073V23.0192H6.52463C6.05123 23.0192 5.60682 23.2044 5.2719 23.5424C4.93698 23.8804 4.75341 24.3289 4.75341 24.8066C4.75341 25.7914 5.54885 26.5941 6.52463 26.5941H11.3874C12.0863 28.3036 13.7544 29.5093 15.6996 29.5093C17.6447 29.5093 19.3128 28.3036 20.0117 26.5941H35.6982C36.3971 28.3036 38.0652 29.5093 40.0103 29.5093C41.9555 29.5093 43.6236 28.3036 44.3225 26.5941H47.3206C47.794 26.5941 48.2385 26.4089 48.5734 26.0709C48.9083 25.7329 49.0919 25.2844 49.0919 24.8066C49.0886 23.8186 48.2932 23.0192 47.3174 23.0192ZM33.8723 7.34793H36.9027C41.9973 7.34793 46.142 11.5306 46.142 16.672V23.0192H44.3192C43.6204 21.3097 41.9522 20.104 40.0071 20.104C38.062 20.104 36.3938 21.3097 35.695 23.0192H33.8723V7.34793ZM6.52463 25.4241C6.18649 25.4241 5.91276 25.1479 5.91276 24.8066C5.91276 24.6409 5.97716 24.4849 6.0931 24.3679C6.20903 24.2509 6.36039 24.1859 6.52463 24.1859H7.12041H11.0783C11.0525 24.3874 11.0396 24.5954 11.0396 24.8034C11.0396 25.0114 11.0525 25.2194 11.0783 25.4209H6.52463V25.4241ZM15.6996 28.3393C13.7673 28.3393 12.1958 26.7533 12.1958 24.8034C12.1958 22.8534 13.7673 21.2674 15.6996 21.2674C17.6318 21.2674 19.2033 22.8534 19.2033 24.8034C19.2033 26.7533 17.6318 28.3393 15.6996 28.3393ZM20.3208 25.4241C20.3466 25.2226 20.3595 25.0146 20.3595 24.8066C20.3595 24.5986 20.3466 24.3906 20.3208 24.1891H33.2926H35.3858C35.3601 24.3906 35.3472 24.5986 35.3472 24.8066C35.3472 25.0146 35.3601 25.2226 35.3858 25.4241H20.3208ZM40.0071 28.3393C38.0749 28.3393 36.5033 26.7533 36.5033 24.8034C36.5033 22.8534 38.0749 21.2674 40.0071 21.2674C41.9394 21.2674 43.5109 22.8534 43.5109 24.8034C43.5109 26.7533 41.9394 28.3393 40.0071 28.3393ZM47.749 25.2421C47.633 25.3591 47.4784 25.4241 47.3174 25.4241H44.6316C44.6574 25.2226 44.6703 25.0146 44.6703 24.8066C44.6703 24.5986 44.6574 24.3906 44.6316 24.1891H46.7249H47.3206C47.6588 24.1891 47.9325 24.4654 47.9325 24.8066C47.9293 24.9691 47.8649 25.1251 47.749 25.2421Z" fill="#E44C00"/>
<path d="M15.6996 22.8701C14.6401 22.8701 13.7803 23.7379 13.7803 24.8071C13.7803 25.8731 14.6401 26.744 15.6996 26.744C16.7591 26.744 17.619 25.8763 17.619 24.8071C17.619 23.7379 16.7559 22.8701 15.6996 22.8701ZM15.6996 25.5708C15.281 25.5708 14.9396 25.2263 14.9396 24.8038C14.9396 24.3813 15.281 24.0368 15.6996 24.0368C16.1183 24.0368 16.4596 24.3813 16.4596 24.8038C16.4596 25.2296 16.1183 25.5708 15.6996 25.5708Z" fill="#E44C00"/>
<path d="M40.0072 22.8701C38.9477 22.8701 38.0879 23.7379 38.0879 24.8071C38.0879 25.8731 38.9477 26.744 40.0072 26.744C41.0668 26.744 41.9266 25.8763 41.9266 24.8071C41.9266 23.7379 41.0668 22.8701 40.0072 22.8701ZM40.0072 25.5708C39.5886 25.5708 39.2472 25.2263 39.2472 24.8038C39.2472 24.3813 39.5886 24.0368 40.0072 24.0368C40.4259 24.0368 40.7673 24.3813 40.7673 24.8038C40.7673 25.2296 40.4259 25.5708 40.0072 25.5708Z" fill="#E44C00"/>
<path d="M17.7029 5.5606C18.0217 5.5606 18.2826 5.29736 18.2826 4.97561C18.2826 4.65387 18.0217 4.39062 17.7029 4.39062H14.3795C14.0607 4.39062 13.7998 4.65387 13.7998 4.97561C13.7998 5.29736 14.0607 5.5606 14.3795 5.5606H17.7029Z" fill="#E44C00"/>
<path d="M6.79158 8.47559H2.87557C2.55675 8.47559 2.2959 8.73883 2.2959 9.06058C2.2959 9.38232 2.55675 9.64557 2.87557 9.64557H6.79158C7.1104 9.64557 7.37125 9.38232 7.37125 9.06058C7.37125 8.73883 7.1104 8.47559 6.79158 8.47559Z" fill="#E44C00"/>
<path d="M8.79785 9.06058C8.79785 9.38232 9.0587 9.64557 9.37752 9.64557H19.9887C20.3076 9.64557 20.5684 9.38232 20.5684 9.06058C20.5684 8.73883 20.3076 8.47559 19.9887 8.47559H9.37752C9.05548 8.47559 8.79785 8.73883 8.79785 9.06058Z" fill="#E44C00"/>
<path d="M4.12222 13.1494C4.12222 12.8277 3.86136 12.5645 3.54254 12.5645H0.589437C0.270618 12.5645 0.00976562 12.8277 0.00976562 13.1494C0.00976562 13.4712 0.270618 13.7344 0.589437 13.7344H3.54254C3.86136 13.7344 4.12222 13.4712 4.12222 13.1494Z" fill="#E44C00"/>
<path d="M5.5459 13.1494C5.5459 13.4712 5.80675 13.7344 6.12557 13.7344H17.6997C18.0185 13.7344 18.2794 13.4712 18.2794 13.1494C18.2794 12.8277 18.0185 12.5645 17.6997 12.5645H6.12557C5.80675 12.5645 5.5459 12.8244 5.5459 13.1494Z" fill="#E44C00"/>
<path d="M13.9898 16.6494C13.671 16.6494 13.4102 16.9127 13.4102 17.2344C13.4102 17.5561 13.671 17.8194 13.9898 17.8194H19.7254C20.0442 17.8194 20.305 17.5561 20.305 17.2344C20.305 16.9127 20.0442 16.6494 19.7254 16.6494H13.9898Z" fill="#E44C00"/>
</svg>
